<svg width="1400" height="890" viewBox="0 0 1400 890" fill="none" xmlns="http://www.w3.org/2000/svg">
<g filter="url(#filter0_f_1099_437)">
<path d="M681.675 490.543C681.675 490.543 775.752 511.45 860.87 602.541" stroke="url(#paint0_linear_1099_437)" stroke-width="4.8" stroke-miterlimit="10" stroke-linecap="round"/>
<path d="M1135.64 962.425C1128.17 968.398 1117.72 966.905 1111.74 960.931L999.747 825.042C993.774 817.575 995.267 807.122 1001.24 801.149L1029.61 777.256C1037.08 771.283 1047.53 772.776 1053.51 778.749L1165.5 914.639C1171.48 922.106 1169.98 932.559 1164.01 938.532L1135.64 962.425Z" fill="#5D94C9"/>
<path d="M989.294 783.229C981.827 789.202 971.374 789.202 965.401 781.736L884.763 687.658C878.79 680.192 878.79 669.739 886.256 663.766L914.629 638.38C922.095 632.406 932.548 632.406 938.522 639.873L1019.16 733.951C1025.13 741.417 1025.13 751.87 1017.67 757.843L989.294 783.229Z" fill="#5D94C9"/>
<path d="M747.38 756.35C741.407 763.817 730.954 763.816 723.487 759.337L720.5 756.35C713.034 750.377 711.541 739.924 717.514 732.457L741.407 704.085C747.38 696.618 757.833 696.618 765.299 701.098L768.286 704.085C775.752 710.058 777.246 720.511 771.272 727.977L747.38 756.35Z" fill="#55B1BC"/>
<path d="M447.227 744.404C454.694 750.377 454.694 760.83 448.721 768.296L445.734 771.283C439.761 778.75 429.308 778.749 421.841 772.776L393.469 747.39C386.002 741.417 386.002 730.964 391.975 723.498L394.962 720.511C400.935 713.044 411.388 713.045 418.855 719.018L447.227 744.404Z" fill="#58BDAE"/>
<path d="M386.002 889.253C394.962 889.253 403.922 896.72 403.922 905.68V910.159C403.922 919.119 397.949 926.586 387.496 928.079L350.163 929.572C341.203 929.572 332.244 922.106 332.244 913.146V908.666C332.244 899.706 338.217 892.24 348.67 890.747L386.002 889.253Z" fill="#58BDAE"/>
<path d="M823.538 836.988C816.071 842.961 805.618 842.961 799.645 835.495L766.793 799.656C760.82 792.189 760.82 781.736 768.286 775.763L796.659 750.377C804.125 744.404 814.578 744.404 820.551 751.87L853.404 787.709C859.377 795.176 859.377 805.629 851.911 811.602L823.538 836.988Z" fill="#579EC1"/>
<path d="M559.225 502.49C560.718 511.45 554.745 520.409 545.785 521.903L503.973 529.369C495.013 530.862 486.053 524.889 484.56 515.929L478.587 478.597C477.093 469.637 483.067 460.677 492.026 459.184L533.839 451.718C542.798 450.224 551.758 456.198 553.251 465.157L559.225 502.49Z" fill="#4BAF74"/>
<path d="M412.881 798.162C421.841 801.149 426.321 811.602 423.334 820.562L408.401 860.881C405.415 869.841 394.962 874.32 387.495 871.334L351.656 857.894C342.696 854.908 338.217 844.454 341.203 835.495L356.136 795.176C359.123 786.216 369.576 781.736 377.042 784.723L412.881 798.162Z" fill="#4A9973"/>
<path d="M405.415 550.275C411.388 557.742 409.895 568.195 402.428 574.168L368.082 599.554C360.616 605.527 350.163 604.034 344.19 596.567L321.79 565.208C315.817 557.742 317.31 547.289 324.777 541.315L359.123 515.929C366.589 509.956 377.042 511.45 383.015 518.916L405.415 550.275Z" fill="#4BB075"/>
<path d="M147.075 757.843C156.035 759.337 163.501 766.803 162.008 777.256L157.528 817.575C156.035 826.535 148.568 834.001 139.608 832.508L102.276 828.028C93.3163 826.535 85.8498 819.069 87.3431 808.615L91.823 766.803C93.3163 757.843 100.783 750.377 109.743 751.87L147.075 757.843Z" fill="#285725"/>
<path d="M209.793 868.347C218.753 868.347 226.22 875.814 227.713 884.774V926.586C227.713 935.546 220.246 943.012 211.287 943.012H173.954C164.994 943.012 157.528 935.546 156.035 926.586V884.774C156.035 875.814 163.501 868.347 172.461 868.347H209.793Z" fill="#285725"/>
<path d="M285.951 656.299C294.911 660.779 297.898 671.232 293.418 678.699L253.099 757.843C248.619 766.803 239.659 768.296 230.699 763.817L197.847 744.404C190.38 739.924 187.394 727.977 190.38 720.511L227.713 645.846C232.193 636.886 242.646 633.9 250.112 638.38L285.951 656.299Z" fill="#467A41"/>
<path d="M627.916 442.758C627.916 451.718 620.449 459.184 611.49 460.677H601.037C592.077 460.677 584.61 453.211 584.61 444.251V406.919C584.61 397.959 592.077 390.493 601.037 388.999H611.49C620.449 388.999 627.916 396.466 627.916 405.426V442.758Z" fill="#4BAF74"/>
<path d="M442.747 465.157C445.734 474.117 441.254 483.077 432.294 487.557L423.335 490.543C414.375 493.53 405.415 489.05 400.935 480.09L388.989 445.744C386.002 436.785 390.482 427.825 399.442 423.345L408.402 420.359C417.361 417.372 426.321 421.852 430.801 430.812L442.747 465.157Z" fill="#4BAF74"/>
<path d="M274.005 553.262C281.471 559.235 281.471 571.181 275.498 577.155L268.032 584.621C262.058 592.088 251.605 592.087 244.139 586.114L217.26 560.728C209.793 554.755 209.793 542.809 215.766 536.836L223.233 529.369C229.206 521.903 239.659 521.903 247.126 527.876L274.005 553.262Z" fill="#467A41"/>
<path d="M139.608 641.366C148.568 644.353 153.048 654.806 148.568 663.766L145.582 672.725C142.595 681.685 132.142 686.165 123.182 681.685L88.8364 666.752C79.8766 663.766 75.3967 653.313 79.8766 644.353L82.8632 635.393C85.8498 626.433 96.3029 621.953 105.263 626.433L139.608 641.366Z" fill="#285725"/>
<path d="M54.4906 878.8C63.4504 878.8 70.9168 886.267 72.4101 895.227V905.68C72.4101 914.639 64.9436 922.106 55.9839 922.106H18.6515C8.19841 922.106 0.731934 914.639 0.731934 905.68V895.227C0.731934 886.267 8.19841 878.8 17.1582 878.8H54.4906Z" fill="#285725"/>
<path d="M1390.99 442.758H1411.9C1417.87 442.758 1423.84 438.278 1423.84 430.812V381.533C1423.84 375.56 1419.36 371.08 1413.39 369.586H1392.48C1386.51 369.586 1380.54 374.066 1380.54 381.533V430.812C1380.54 436.785 1385.02 442.758 1390.99 442.758Z" fill="#54BBAC"/>
<path d="M1152.06 795.176C1204.33 716.031 1299.9 663.766 1386.51 656.299C1443.26 654.806 1529.87 665.259 1597.07 741.417C1673.22 828.028 1694.13 1013.2 1525.39 1102.79" stroke="url(#paint1_linear_1099_437)" stroke-width="4.8" stroke-miterlimit="10" stroke-linecap="round"/>
<path d="M1047.53 674.219C1152.06 505.476 1331.26 477.104 1331.26 477.104" stroke="url(#paint2_linear_1099_437)" stroke-width="4.8" stroke-miterlimit="10" stroke-linecap="round"/>
<path d="M877.296 875.814L1060.97 1093.83" stroke="url(#paint3_linear_1099_437)" stroke-width="4.8" stroke-miterlimit="10" stroke-linecap="round"/>
<path d="M492.026 698.111C492.026 698.111 578.638 654.806 663.755 690.645" stroke="url(#paint4_linear_1099_437)" stroke-width="4.8" stroke-miterlimit="10" stroke-linecap="round"/>
</g>
<defs>
<filter id="filter0_f_1099_437" x="-209" y="-318" width="2416" height="2416" filterUnits="userSpaceOnUse" color-interpolation-filters="sRGB">
<feFlood flood-opacity="0" result="BackgroundImageFix"/>
<feBlend mode="normal" in="SourceGraphic" in2="BackgroundImageFix" result="shape"/>
<feGaussianBlur stdDeviation="75" result="effect1_foregroundBlur_1099_437"/>
</filter>
<linearGradient id="paint0_linear_1099_437" x1="645.997" y1="546.467" x2="896.929" y2="546.467" gradientUnits="userSpaceOnUse">
<stop stop-color="#4BAF74"/>
<stop offset="1" stop-color="#5D94C9"/>
</linearGradient>
<linearGradient id="paint1_linear_1099_437" x1="1116.18" y1="878.287" x2="1688.59" y2="878.287" gradientUnits="userSpaceOnUse">
<stop stop-color="#6386D1"/>
<stop offset="1" stop-color="#5AA1C4"/>
</linearGradient>
<linearGradient id="paint2_linear_1099_437" x1="1019.07" y1="564.052" x2="1359.26" y2="588.062" gradientUnits="userSpaceOnUse">
<stop stop-color="#6386D1"/>
<stop offset="0.9989" stop-color="#467A41"/>
</linearGradient>
<linearGradient id="paint3_linear_1099_437" x1="841.911" y1="984.817" x2="1096.94" y2="984.817" gradientUnits="userSpaceOnUse">
<stop stop-color="#54ADBF"/>
<stop offset="1" stop-color="#786BBE"/>
</linearGradient>
<linearGradient id="paint4_linear_1099_437" x1="456.398" y1="686.649" x2="699.717" y2="686.649" gradientUnits="userSpaceOnUse">
<stop stop-color="#58BDAE"/>
<stop offset="1" stop-color="#55B1BC"/>
</linearGradient>
</defs>
</svg>
