<svg width="18" height="18" viewBox="0 0 18 18" fill="none" xmlns="http://www.w3.org/2000/svg">
    <path fill-rule="evenodd" clip-rule="evenodd"
        d="M15.6864 7.14388H17.5626V10.4617H15.6872C15.4873 11.2339 15.1572 11.953 14.7134 12.5884L15.9037 13.7795L14.2448 15.4384L13.0545 14.2473C12.4175 14.691 11.7001 15.022 10.927 15.221V17.0973H7.60922V15.221C6.837 15.022 6.1187 14.691 5.48251 14.2473L4.29142 15.4384L2.63253 13.7795L3.82362 12.5884C3.37986 11.9539 3.04891 11.2347 2.84984 10.4617H0.973633V7.14388H2.84984C3.04891 6.37084 3.37903 5.65254 3.82362 5.01718L2.63253 3.82609L4.29142 2.1672L5.48251 3.35828C6.11787 2.9137 6.83617 2.58358 7.60922 2.38451V0.508301H10.927V2.38368C11.7001 2.58358 12.4175 2.9137 13.0545 3.35745L14.2448 2.16637L15.9037 3.82526L14.7126 5.01718C15.1564 5.65254 15.4873 6.37167 15.6864 7.14388ZM9.26811 12.1206C11.1004 12.1206 12.5859 10.6351 12.5859 8.80278C12.5859 6.97041 11.1004 5.48499 9.26811 5.48499C7.43575 5.48499 5.95032 6.97041 5.95032 8.80278C5.95032 10.6351 7.43575 12.1206 9.26811 12.1206Z"
        fill="#5D6983" />
</svg>