<svg aria-hidden="true" style="position: absolute; width: 0; height: 0; overflow: hidden;"
    version="1.1" xmlns="http://www.w3.org/2000/svg" xmlns:xlink="http://www.w3.org/1999/xlink">
    <defs>
        <symbol id="automations" viewBox="0 0 32 32">
            <path
                d="M5.035 17.255h10.039v-12.549h-10.039v12.549zM5.035 27.294h10.039v-7.529h-10.039v7.529zM17.584 27.294h10.039v-12.549h-10.039v12.549zM17.584 4.706v7.529h10.039v-7.529h-10.039z"></path>
        </symbol>
        <symbol id="users" viewBox="0 0 34 32">
            <path
                stroke-linejoin="miter" stroke-linecap="butt" stroke-miterlimit="4"
                stroke-width="1"
                d="M14.303 25.333v0.5h15.667v-3.5c0-0.794-0.402-1.452-0.964-1.97-0.558-0.515-1.307-0.925-2.102-1.243-1.589-0.636-3.485-0.954-4.768-0.954s-3.179 0.318-4.767 0.954c-0.795 0.318-1.544 0.728-2.102 1.243-0.562 0.518-0.964 1.176-0.964 1.97v3zM2.303 25.333v0.5h10.333v-3.5c0-0.978 0.364-2.783 2.902-4.189l1.18-0.654-1.321-0.273c-1.182-0.245-2.338-0.384-3.261-0.384-1.616 0-4.012 0.402-6.017 1.204-1.003 0.401-1.94 0.915-2.633 1.555-0.697 0.643-1.182 1.447-1.182 2.407v3.333zM22.136 16.5c2.119 0 3.82-1.72 3.82-3.833s-1.701-3.833-3.82-3.833c-2.116 0-3.833 1.717-3.833 3.833s1.717 3.833 3.833 3.833zM12.136 15.167c2.492 0 4.487-2.013 4.487-4.5s-1.995-4.5-4.487-4.5c-2.489 0-4.5 2.011-4.5 4.5s2.011 4.5 4.5 4.5z"></path>
        </symbol>
        <symbol id="tools" viewBox="0 0 32 32">
            <path
                d="M31.412 7.911c-0.073-0.151-0.181-0.282-0.316-0.382s-0.29-0.167-0.456-0.195c-0.165-0.028-0.335-0.016-0.494 0.035s-0.305 0.139-0.423 0.258l-3.191 3.191c-0.13 0.128-0.306 0.2-0.488 0.2s-0.358-0.072-0.488-0.2l-1.402-1.402c-0.128-0.13-0.2-0.306-0.2-0.489s0.072-0.358 0.2-0.489l3.174-3.174c0.121-0.121 0.211-0.271 0.262-0.435s0.060-0.338 0.027-0.507c-0.032-0.169-0.106-0.327-0.213-0.461s-0.246-0.239-0.404-0.307c-2.477-1.060-5.557-0.465-7.485 1.453-1.672 1.66-2.173 4.242-1.372 7.092 0.034 0.122 0.034 0.252-0 0.374s-0.103 0.232-0.197 0.318l-10.785 10.021c-0.357 0.321-0.645 0.712-0.847 1.149s-0.312 0.909-0.325 1.39 0.072 0.958 0.25 1.405c0.178 0.446 0.445 0.852 0.785 1.192s0.745 0.607 1.192 0.785c0.446 0.178 0.924 0.264 1.405 0.251s0.953-0.123 1.39-0.324c0.436-0.201 0.827-0.489 1.149-0.846l10.111-10.804c0.085-0.092 0.193-0.159 0.312-0.193s0.247-0.036 0.368-0.004c2.807 0.749 5.364 0.25 7.013-1.372 0.948-0.936 1.61-2.256 1.864-3.725 0.239-1.385 0.088-2.772-0.414-3.805z"></path>
            <path
                d="M27.281 23.643c-0.87-0.723-2.727-2.395-4.62-4.131l-4.121 4.404c1.762 1.871 3.356 3.609 4.055 4.421l0.004 0.005c0.168 0.192 0.373 0.348 0.603 0.458s0.48 0.172 0.735 0.181h0.069c0.49-0.002 0.96-0.194 1.31-0.538l0.004-0.004 2.085-2.082c0.181-0.181 0.323-0.397 0.415-0.636s0.134-0.494 0.123-0.749c-0.012-0.255-0.077-0.506-0.191-0.735s-0.275-0.432-0.472-0.595h0.001z"></path>
            <path
                d="M7.394 13.422c0.001-0.237-0.064-0.469-0.187-0.671-0.017-0.027-0.027-0.059-0.027-0.091s0.009-0.064 0.026-0.091c0.017-0.027 0.041-0.050 0.071-0.064s0.061-0.020 0.094-0.017h0.004c0.052 0.006 0.332 0.046 0.73 0.288 0.295 0.179 1.137 0.754 2.603 2.217-0.016 0.498 0.144 0.987 0.45 1.38l4.131-3.839c-0.366-0.346-0.844-0.55-1.347-0.574-0.005-0.005-0.009-0.011-0.013-0.016l-0.041-0.043-1.531-2.111c-0.17-0.231-0.282-0.5-0.325-0.784s-0.017-0.574 0.076-0.845c0.14-0.404 0.396-0.759 0.735-1.020 0.355-0.275 1.156-0.606 1.836-0.662 0.317-0.026 0.636-0.006 0.948 0.059 0.149 0.036 0.296 0.080 0.44 0.133 0.044 0.016 0.089 0.029 0.134 0.039 0.198 0.044 0.405 0.026 0.592-0.050s0.348-0.208 0.459-0.378c0.111-0.17 0.168-0.369 0.162-0.572s-0.072-0.399-0.192-0.563c-0.016-0.022-0.082-0.112-0.18-0.233-0.183-0.23-0.383-0.447-0.599-0.646-0.508-0.459-1.826-1.233-3.556-1.233-0.99-0.001-1.971 0.19-2.888 0.561-2.393 0.964-3.959 2.282-4.679 2.981l-0.006 0.006c-0.484 0.478-0.933 0.992-1.342 1.536-0.155 0.218-0.255 0.47-0.293 0.734-0.018 0.113-0.077 0.214-0.166 0.286s-0.201 0.107-0.315 0.099c-0.022 0-0.046 0-0.068 0-0.34-0.002-0.667 0.13-0.91 0.368l-1.857 1.811c-0.231 0.24-0.361 0.56-0.364 0.893s0.122 0.655 0.349 0.899c0.012 0.012 0.023 0.024 0.036 0.036l2.963 2.89c0.244 0.239 0.572 0.374 0.914 0.374 0.34 0.002 0.667-0.13 0.91-0.368l1.838-1.796c0.123-0.12 0.22-0.263 0.286-0.421s0.1-0.328 0.099-0.499z"></path>
        </symbol>
        <symbol id="plus" viewBox="0 0 34 32">
            <path
                d="M26.692 17.333h-8v8h-2.667v-8h-8v-2.667h8v-8h2.667v8h8v2.667z"></path>
        </symbol>
        <symbol id="arrow-back" viewBox="0 0 32 32">
            <path
                d="M26.666 14.667h-16.227l7.453-7.453-1.893-1.88-10.667 10.667 10.667 10.667 1.88-1.88-7.44-7.453h16.227v-2.667z"></path>
        </symbol>
        <symbol id="arrow-circle" viewBox="0 0 32 32">
            <path fill="#6a7794" style="fill: var(--color2, #6a7794)"
                d="M15.338 0.941c8.317 0 15.059 6.742 15.059 15.059s-6.742 15.059-15.059 15.059c-8.317 0-15.059-6.742-15.059-15.059s6.742-15.059 15.059-15.059z"></path>
            <path fill="#132624" style="fill: var(--color3, #132624)"
                d="M7.809 16l1.327 1.327 5.261-5.252v11.454h1.882v-11.454l5.252 5.261 1.336-1.336-7.529-7.529-7.529 7.529z"></path>
        </symbol>
        <symbol id="arrow-down" viewBox="0 0 32 32">
            <path fill="#59595f" style="fill: var(--color4, #59595f)"
                d="M22.12 11.453l-6.12 6.107-6.12-6.107-1.88 1.88 8 8 8-8-1.88-1.88z"></path>
        </symbol>
        <symbol id="ask" viewBox="0 0 32 32">
            <path
                d="M16 0c-8.822 0-16 7.179-16 16 0 8.824 7.178 16 16 16s16-7.176 16-16c0-8.821-7.178-16-16-16zM16 26c-1.104 0-2-0.894-2-2 0-1.104 0.896-2 2-2s2 0.896 2 2c0 1.106-0.896 2-2 2zM17.6 19v1.8h-3.2v-4.8h1.6c1.766 0 3.2-1.435 3.2-3.2 0-1.766-1.434-3.2-3.2-3.2s-3.2 1.434-3.2 3.2h-3.2c0-3.528 2.872-6.4 6.4-6.4s6.4 2.872 6.4 6.4c0 2.978-2.043 5.486-4.8 6.2z"></path>
        </symbol>
        <symbol id="dislike" viewBox="0 0 32 32">
            <path fill="#6a7794" style="fill: var(--color2, #6a7794)"
                d="M19.637 6.473h-10.909c-1.006 0-1.867 0.606-2.23 1.479l-3.661 8.545c-0.109 0.279-0.17 0.57-0.17 0.885v2.315l0.012 0.012-0.012 0.097c0 1.333 1.091 2.424 2.424 2.424h7.648l-1.152 5.539-0.036 0.388c0 0.497 0.206 0.958 0.533 1.285l1.285 1.273 7.988-7.988c0.436-0.436 0.703-1.042 0.703-1.709v-12.121c0-1.333-1.091-2.424-2.424-2.424zM24.486 6.473v14.545h4.848v-14.545h-4.849z"></path>
        </symbol>
        <symbol id="error-outline" viewBox="0 0 32 32">
            <path fill="#f00" style="fill: var(--color6, #f00)"
                d="M14.399 19.556h2.618v2.37h-2.618v-2.37zM14.399 10.074h2.618v7.111h-2.618v-7.111zM15.695 4.148c-7.226 0-13.077 5.31-13.077 11.852s5.851 11.852 13.077 11.852c7.239 0 13.103-5.31 13.103-11.852s-5.864-11.852-13.103-11.852zM15.708 25.482c-5.786 0-10.472-4.243-10.472-9.482s4.686-9.482 10.472-9.482c5.786 0 10.472 4.243 10.472 9.482s-4.686 9.482-10.472 9.482z"></path>
        </symbol>
        <symbol id="graph" viewBox="0 0 32 32">
            <path fill="none"
                stroke-linejoin="round" stroke-linecap="round" stroke-miterlimit="4"
                stroke-width="3.0476" d="M7.239 24.677v-17.355"></path>
            <path fill="none"
                stroke-linejoin="round" stroke-linecap="round" stroke-miterlimit="4"
                stroke-width="3.0476" d="M7.239 24.677h17.355"></path>
            <path fill="none"
                stroke-linejoin="round" stroke-linecap="round" stroke-miterlimit="4"
                stroke-width="3.0476"
                d="M11.136 17.66c2.263-2.067 3.886-3.249 5.717-4.89l1.136 4.45 4.95-4.173"></path>
        </symbol>
        <symbol id="playlist-add-check" viewBox="0 0 32 32">
            <path fill="#57a6f8" style="fill: var(--color7, #57a6f8)"
                d="M18.526 13.474h-15.158v2.526h15.158v-2.526zM18.526 8.421h-15.158v2.526h15.158v-2.526zM3.368 21.053h10.105v-2.526h-10.105v2.526zM28 15.368l1.895 1.895-8.829 8.842-5.697-5.684 1.895-1.895 3.802 3.789 6.935-6.947z"></path>
        </symbol>
        <symbol id="search" viewBox="0 0  32">
            <path fill="#b6bac0" style="fill: var(--color8, #b6bac0)" opacity="0.6"
                d="M13.325 0c-7.344 0-13.325 5.982-13.325 13.325s5.982 13.325 13.325 13.325c3.193 0 6.126-1.134 8.425-3.016l7.956 7.956c0.123 0.128 0.27 0.23 0.433 0.3s0.338 0.107 0.515 0.109c0.177 0.002 0.353-0.032 0.517-0.099s0.313-0.166 0.439-0.291c0.125-0.126 0.225-0.275 0.291-0.439s0.101-0.34 0.099-0.517-0.039-0.353-0.109-0.515c-0.070-0.163-0.173-0.31-0.3-0.433l-7.956-7.956c1.882-2.298 3.016-5.231 3.016-8.425 0-7.344-5.982-13.325-13.325-13.325zM13.325 2.665c5.903 0 10.66 4.757 10.66 10.66s-4.757 10.66-10.66 10.66c-5.903 0-10.66-4.757-10.66-10.66s4.757-10.66 10.66-10.66z"></path>
        </symbol>
        <symbol id="setting" viewBox="0 0 32 32">
            <path
                d="M22.968 14.685h1.819v3.217h-1.819c-0.194 0.749-0.514 1.446-0.944 2.062l1.154 1.155-1.609 1.609-1.154-1.155c-0.618 0.43-1.313 0.751-2.063 0.944v1.819h-3.217v-1.819c-0.749-0.193-1.445-0.514-2.062-0.944l-1.155 1.155-1.609-1.609 1.155-1.155c-0.43-0.615-0.751-1.313-0.944-2.062h-1.819v-3.217h1.819c0.193-0.75 0.513-1.446 0.944-2.062l-1.155-1.155 1.609-1.609 1.155 1.155c0.616-0.431 1.313-0.751 2.062-0.944v-1.819h3.217v1.819c0.75 0.194 1.445 0.514 2.063 0.944l1.154-1.155 1.609 1.609-1.155 1.156c0.43 0.616 0.751 1.313 0.944 2.062zM16.744 19.511c1.777 0 3.217-1.441 3.217-3.217s-1.44-3.217-3.217-3.217c-1.777 0-3.217 1.44-3.217 3.217s1.441 3.217 3.217 3.217z"></path>
        </symbol>
        <symbol id="time" viewBox="0 0 32 32">
            <path fill="#57a6f8" style="fill: var(--color7, #57a6f8)"
                d="M15.987 2.667c-7.36 0-13.32 5.973-13.32 13.333s5.96 13.333 13.32 13.333c7.373 0 13.347-5.973 13.347-13.333s-5.973-13.333-13.347-13.333zM16 26.667c-5.893 0-10.667-4.773-10.667-10.667s4.773-10.667 10.667-10.667c5.893 0 10.667 4.773 10.667 10.667s-4.773 10.667-10.667 10.667zM16.667 9.333h-2v8l7 4.2 1-1.64-6-3.56v-7z"></path>
        </symbol>
        <symbol id="loading" viewBox="0 0 30 34">
            <path fill="none" stroke="#26344f" style="stroke: var(--color1, #26344f)"
                stroke-linejoin="miter" stroke-linecap="round" stroke-miterlimit="4"
                stroke-width="3.3684"
                d="M15.232 26.906c5.54 0 10.031-4.524 10.031-10.105s-4.491-10.105-10.031-10.105c-3.882 0-7.249 2.221-8.916 5.471"></path>
            <path fill="none" stroke="#07b83f" style="stroke: var(--color2, #07b83f)"
                stroke-linejoin="miter" stroke-linecap="round" stroke-miterlimit="4"
                stroke-width="3.3684"
                d="M15.158 6.695c-5.581 0-10.105 4.524-10.105 10.105s4.524 10.105 10.105 10.105c3.911 0 7.302-2.221 8.982-5.471"></path>
        </symbol>
        <symbol id="play-fill" viewBox="0 0 32 32">
            <path
                d="M6.346 24.442c-1.306-0.158-2.086-1.513-1.569-2.722 0.605-1.414 2.043-4.588 4.368-8.615s4.355-6.861 5.277-8.091c0.788-1.051 2.351-1.054 3.141-0.002 0.916 1.219 2.921 4.018 5.275 8.095 2.355 4.078 3.776 7.215 4.373 8.617 0.515 1.209-0.266 2.56-1.569 2.718-1.522 0.184-4.98 0.527-9.649 0.527-4.667 0-8.123-0.342-9.647-0.527z"></path>
        </symbol>
    </defs>
</svg>
    