<svg aria-hidden="true" style="position: absolute; width: 0; height: 0; overflow: hidden;"
    version="1.1" xmlns="http://www.w3.org/2000/svg" xmlns:xlink="http://www.w3.org/1999/xlink">
    <defs>
        <symbol id="arrow-back" viewBox="0 0 32 32">
            <path
                d="M26.666 14.667h-16.227l7.453-7.453-1.893-1.88-10.667 10.667 10.667 10.667 1.88-1.88-7.44-7.453h16.227v-2.667z"></path>
        </symbol>
        <symbol id="arrow-circle" viewBox="0 0 32 32">
            <path fill="#6a7794" style="fill: var(--color2, #6a7794)"
                d="M15.338 0.941c8.317 0 15.059 6.742 15.059 15.059s-6.742 15.059-15.059 15.059c-8.317 0-15.059-6.742-15.059-15.059s6.742-15.059 15.059-15.059z"></path>
            <path fill="#132624" style="fill: var(--color3, #132624)"
                d="M7.809 16l1.327 1.327 5.261-5.252v11.454h1.882v-11.454l5.252 5.261 1.336-1.336-7.529-7.529-7.529 7.529z"></path>
        </symbol>
        <symbol id="arrow-down" viewBox="0 0 32 32">
            <path fill="#59595f" style="fill: var(--color4, #59595f)"
                d="M22.12 11.453l-6.12 6.107-6.12-6.107-1.88 1.88 8 8 8-8-1.88-1.88z"></path>
        </symbol>
        <symbol id="integrations" viewBox="0 0 32 32">
            <path
                stroke-linejoin="miter" stroke-linecap="butt" stroke-miterlimit="4"
                stroke-width="0.9412"
                d="M11.675 14.745v3.294h-8.797v3.451h8.797v4.432l6.142-6.158-6.142-6.158v1.138zM19.316 17.587l0.804 0.806v-4.432h8.797v-3.451h-8.797v-4.432l-6.142 6.158 5.339 5.352z"></path>
        </symbol>
        <symbol id="ask" viewBox="0 0 32 32">
            <path
                d="M16 0c-8.822 0-16 7.179-16 16 0 8.824 7.178 16 16 16s16-7.176 16-16c0-8.821-7.178-16-16-16zM16 26c-1.104 0-2-0.894-2-2 0-1.104 0.896-2 2-2s2 0.896 2 2c0 1.106-0.896 2-2 2zM17.6 19v1.8h-3.2v-4.8h1.6c1.766 0 3.2-1.435 3.2-3.2 0-1.766-1.434-3.2-3.2-3.2s-3.2 1.434-3.2 3.2h-3.2c0-3.528 2.872-6.4 6.4-6.4s6.4 2.872 6.4 6.4c0 2.978-2.043 5.486-4.8 6.2z"></path>
        </symbol>
        <symbol id="automations" viewBox="0 0 32 32">
            <path fill="none"
                stroke-linejoin="round" stroke-linecap="round" stroke-miterlimit="4"
                stroke-width="3.0476" d="M12.048 10.196h12.576"></path>
            <path fill="none"
                stroke-linejoin="round" stroke-linecap="round" stroke-miterlimit="4"
                stroke-width="3.0476" d="M12.048 16h12.576"></path>
            <path fill="none"
                stroke-linejoin="round" stroke-linecap="round" stroke-miterlimit="4"
                stroke-width="3.0476" d="M12.048 21.805h12.576"></path>
            <path fill="none"
                stroke-linejoin="round" stroke-linecap="round" stroke-miterlimit="4"
                stroke-width="3.0476" d="M7.211 10.196h0.009"></path>
            <path fill="none"
                stroke-linejoin="round" stroke-linecap="round" stroke-miterlimit="4"
                stroke-width="3.0476" d="M7.211 16h0.009"></path>
            <path fill="none"
                stroke-linejoin="round" stroke-linecap="round" stroke-miterlimit="4"
                stroke-width="3.0476" d="M7.211 21.805h0.009"></path>
        </symbol>
        <symbol id="dislike" viewBox="0 0 32 32">
            <path fill="#6a7794" style="fill: var(--color2, #6a7794)"
                d="M19.637 6.473h-10.909c-1.006 0-1.867 0.606-2.23 1.479l-3.661 8.545c-0.109 0.279-0.17 0.57-0.17 0.885v2.315l0.012 0.012-0.012 0.097c0 1.333 1.091 2.424 2.424 2.424h7.648l-1.152 5.539-0.036 0.388c0 0.497 0.206 0.958 0.533 1.285l1.285 1.273 7.988-7.988c0.436-0.436 0.703-1.042 0.703-1.709v-12.121c0-1.333-1.091-2.424-2.424-2.424zM24.486 6.473v14.545h4.848v-14.545h-4.849z"></path>
        </symbol>
        <symbol id="error-outline" viewBox="0 0 32 32">
            <path fill="#f00" style="fill: var(--color6, #f00)"
                d="M14.399 19.556h2.618v2.37h-2.618v-2.37zM14.399 10.074h2.618v7.111h-2.618v-7.111zM15.695 4.148c-7.226 0-13.077 5.31-13.077 11.852s5.851 11.852 13.077 11.852c7.239 0 13.103-5.31 13.103-11.852s-5.864-11.852-13.103-11.852zM15.708 25.482c-5.786 0-10.472-4.243-10.472-9.482s4.686-9.482 10.472-9.482c5.786 0 10.472 4.243 10.472 9.482s-4.686 9.482-10.472 9.482z"></path>
        </symbol>
        <symbol id="graph" viewBox="0 0 32 32">
            <path fill="none"
                stroke-linejoin="round" stroke-linecap="round" stroke-miterlimit="4"
                stroke-width="3.0476" d="M7.239 24.677v-17.355"></path>
            <path fill="none"
                stroke-linejoin="round" stroke-linecap="round" stroke-miterlimit="4"
                stroke-width="3.0476" d="M7.239 24.677h17.355"></path>
            <path fill="none"
                stroke-linejoin="round" stroke-linecap="round" stroke-miterlimit="4"
                stroke-width="3.0476"
                d="M11.136 17.66c2.263-2.067 3.886-3.249 5.717-4.89l1.136 4.45 4.95-4.173"></path>
        </symbol>
        <symbol id="playlist-add-check" viewBox="0 0 32 32">
            <path fill="#57a6f8" style="fill: var(--color7, #57a6f8)"
                d="M18.526 13.474h-15.158v2.526h15.158v-2.526zM18.526 8.421h-15.158v2.526h15.158v-2.526zM3.368 21.053h10.105v-2.526h-10.105v2.526zM28 15.368l1.895 1.895-8.829 8.842-5.697-5.684 1.895-1.895 3.802 3.789 6.935-6.947z"></path>
        </symbol>
        <symbol id="metrics" viewBox="0 0 32 32">
            <path
                d="M17.152 3.514v3.802c4.254 0.615 7.529 4.254 7.529 8.684 0 1.129-0.226 2.196-0.602 3.187l3.263 1.92c0.703-1.556 1.104-3.288 1.104-5.107 0-6.5-4.957-11.859-11.294-12.486zM15.897 24.784c-4.856 0-8.784-3.928-8.784-8.784 0-4.43 3.275-8.069 7.529-8.684v-3.802c-6.35 0.627-11.294 5.973-11.294 12.486 0 6.927 5.609 12.549 12.536 12.549 4.154 0 7.831-2.020 10.114-5.132l-3.263-1.92c-1.606 2.008-4.066 3.288-6.839 3.288z"></path>
        </symbol>
        <symbol id="search" viewBox="0 0  32">
            <path fill="#b6bac0" style="fill: var(--color8, #b6bac0)" opacity="0.6"
                d="M13.325 0c-7.344 0-13.325 5.982-13.325 13.325s5.982 13.325 13.325 13.325c3.193 0 6.126-1.134 8.425-3.016l7.956 7.956c0.123 0.128 0.27 0.23 0.433 0.3s0.338 0.107 0.515 0.109c0.177 0.002 0.353-0.032 0.517-0.099s0.313-0.166 0.439-0.291c0.125-0.126 0.225-0.275 0.291-0.439s0.101-0.34 0.099-0.517-0.039-0.353-0.109-0.515c-0.070-0.163-0.173-0.31-0.3-0.433l-7.956-7.956c1.882-2.298 3.016-5.231 3.016-8.425 0-7.344-5.982-13.325-13.325-13.325zM13.325 2.665c5.903 0 10.66 4.757 10.66 10.66s-4.757 10.66-10.66 10.66c-5.903 0-10.66-4.757-10.66-10.66s4.757-10.66 10.66-10.66z"></path>
        </symbol>
        <symbol id="setting" viewBox="0 0 32 32">
            <path
                d="M22.968 14.685h1.819v3.217h-1.819c-0.194 0.749-0.514 1.446-0.944 2.062l1.154 1.155-1.609 1.609-1.154-1.155c-0.618 0.43-1.313 0.751-2.063 0.944v1.819h-3.217v-1.819c-0.749-0.193-1.445-0.514-2.062-0.944l-1.155 1.155-1.609-1.609 1.155-1.155c-0.43-0.615-0.751-1.313-0.944-2.062h-1.819v-3.217h1.819c0.193-0.75 0.513-1.446 0.944-2.062l-1.155-1.155 1.609-1.609 1.155 1.155c0.616-0.431 1.313-0.751 2.062-0.944v-1.819h3.217v1.819c0.75 0.194 1.445 0.514 2.063 0.944l1.154-1.155 1.609 1.609-1.155 1.156c0.43 0.616 0.751 1.313 0.944 2.062zM16.744 19.511c1.777 0 3.217-1.441 3.217-3.217s-1.44-3.217-3.217-3.217c-1.777 0-3.217 1.44-3.217 3.217s1.441 3.217 3.217 3.217z"></path>
        </symbol>
        <symbol id="time" viewBox="0 0 32 32">
            <path fill="#57a6f8" style="fill: var(--color7, #57a6f8)"
                d="M15.987 2.667c-7.36 0-13.32 5.973-13.32 13.333s5.96 13.333 13.32 13.333c7.373 0 13.347-5.973 13.347-13.333s-5.973-13.333-13.347-13.333zM16 26.667c-5.893 0-10.667-4.773-10.667-10.667s4.773-10.667 10.667-10.667c5.893 0 10.667 4.773 10.667 10.667s-4.773 10.667-10.667 10.667zM16.667 9.333h-2v8l7 4.2 1-1.64-6-3.56v-7z"></path>
        </symbol>
        <symbol id="users" viewBox="0 0 32 32">
            <path
                d="M21.544 16c1.732 0 3.125-1.405 3.125-3.137s-1.393-3.137-3.125-3.137c-1.732 0-3.137 1.405-3.137 3.137s1.406 3.137 3.137 3.137zM12.133 14.745c2.083 0 3.752-1.682 3.752-3.765s-1.669-3.765-3.752-3.765c-2.083 0-3.765 1.682-3.765 3.765s1.682 3.765 3.765 3.765zM21.544 18.51c-2.296 0-6.902 1.154-6.902 3.451v2.824h13.804v-2.824c0-2.296-4.605-3.451-6.902-3.451zM12.133 17.255c-2.924 0-8.784 1.468-8.784 4.392v3.137h8.784v-2.824c0-1.067 0.414-2.936 2.974-4.354-1.092-0.226-2.146-0.351-2.974-0.351z"></path>
        </symbol>
        <symbol id="loading" viewBox="0 0 30 34">
            <path fill="none" stroke="#26344f" style="stroke: var(--color1, #26344f)"
                stroke-linejoin="miter" stroke-linecap="round" stroke-miterlimit="4"
                stroke-width="3.3684"
                d="M15.232 26.906c5.54 0 10.031-4.524 10.031-10.105s-4.491-10.105-10.031-10.105c-3.882 0-7.249 2.221-8.916 5.471"></path>
            <path fill="none" stroke="#07b83f" style="stroke: var(--color2, #07b83f)"
                stroke-linejoin="miter" stroke-linecap="round" stroke-miterlimit="4"
                stroke-width="3.3684"
                d="M15.158 6.695c-5.581 0-10.105 4.524-10.105 10.105s4.524 10.105 10.105 10.105c3.911 0 7.302-2.221 8.982-5.471"></path>
        </symbol>
        <symbol id="play-fill" viewBox="0 0 32 32">
            <path
                d="M6.346 24.442c-1.306-0.158-2.086-1.513-1.569-2.722 0.605-1.414 2.043-4.588 4.368-8.615s4.355-6.861 5.277-8.091c0.788-1.051 2.351-1.054 3.141-0.002 0.916 1.219 2.921 4.018 5.275 8.095 2.355 4.078 3.776 7.215 4.373 8.617 0.515 1.209-0.266 2.56-1.569 2.718-1.522 0.184-4.98 0.527-9.649 0.527-4.667 0-8.123-0.342-9.647-0.527z"></path>
        </symbol>
    </defs>
</svg>
    