<svg width="598" height="890" viewBox="0 0 598 890" fill="none" xmlns="http://www.w3.org/2000/svg">
    <g filter="url(#filter0_f_733_12191)">
        <path d="M770.54 859.39C770.54 859.39 680.942 895.229 558.492 868.349"
            stroke="url(#paint0_linear_733_12191)" stroke-width="4.8" stroke-miterlimit="10"
            stroke-linecap="round" />
        <path
            d="M506.227 299.404C513.693 305.377 513.693 315.83 507.72 323.296L504.733 326.283C498.76 333.75 488.307 333.749 480.841 327.776L452.468 302.39C445.002 296.417 445.002 285.964 450.975 278.498L453.961 275.511C459.935 268.044 470.388 268.045 477.854 274.018L506.227 299.404Z"
            fill="#58BDAE" />
        <path
            d="M445.002 444.253C453.962 444.253 462.921 451.72 462.921 460.68V465.159C462.921 474.119 456.948 481.586 446.495 483.079L409.163 484.572C400.203 484.572 391.243 477.106 391.243 468.146V463.666C391.243 454.706 397.216 447.24 407.669 445.747L445.002 444.253Z"
            fill="#58BDAE" />
        <path
            d="M618.224 57.4898C619.717 66.4496 613.744 75.4093 604.784 76.9026L562.972 84.3691C554.012 85.8624 545.053 79.8892 543.559 70.9294L537.586 33.597C536.093 24.6372 542.066 15.6775 551.026 14.1842L592.838 6.7177C601.798 5.22441 610.758 11.1976 612.251 20.1574L618.224 57.4898Z"
            fill="#4BAF74" />
        <path
            d="M471.882 353.162C480.842 356.149 485.322 366.602 482.335 375.562L467.402 415.881C464.415 424.841 453.962 429.32 446.496 426.334L410.657 412.894C401.697 409.908 397.217 399.454 400.204 390.495L415.137 350.176C418.123 341.216 428.576 336.736 436.043 339.723L471.882 353.162Z"
            fill="#4A9973" />
        <path
            d="M513.694 623.449C521.16 617.476 521.16 607.023 515.187 599.556L512.2 596.57C506.227 589.103 495.774 589.103 488.308 595.076L459.935 620.462C452.468 626.435 452.468 636.888 458.442 644.355L461.428 647.342C467.401 654.808 477.854 654.808 485.321 648.835L513.694 623.449Z"
            fill="#58BDAE" />
        <path
            d="M600.305 668.248C603.292 659.288 600.305 648.835 591.345 645.848L552.52 629.422C543.56 624.942 534.6 629.422 530.12 638.382L515.187 672.728C512.201 681.687 515.187 692.14 524.147 695.127L562.973 713.047C571.933 717.527 580.892 713.047 585.372 704.087L600.305 668.248Z"
            fill="#54B1BB" />
        <path
            d="M477.854 569.69C486.814 566.704 491.294 556.25 488.308 547.291L473.375 506.972C470.388 498.012 459.935 493.532 452.468 496.519L416.629 509.958C407.67 512.945 403.19 523.398 406.176 532.358L421.109 572.677C424.096 581.637 434.549 586.116 442.015 583.13L477.854 569.69Z"
            fill="#4A9973" />
        <path
            d="M464.415 105.275C470.388 112.742 468.895 123.195 461.428 129.168L427.082 154.554C419.616 160.527 409.163 159.034 403.19 151.567L380.79 120.208C374.817 112.742 376.31 102.289 383.777 96.3155L418.123 70.9294C425.589 64.9562 436.042 66.4496 442.015 73.916L464.415 105.275Z"
            fill="#4BB075" />
        <path
            d="M206.074 312.843C215.034 314.337 222.501 321.803 221.007 332.256L216.527 372.575C215.034 381.535 207.568 389.001 198.608 387.508L161.276 383.028C152.316 381.535 144.849 374.068 146.343 363.615L150.822 321.803C152.316 312.843 159.782 305.377 168.742 306.87L206.074 312.843Z"
            fill="#285725" />
        <path
            d="M192.635 536.838C201.595 535.344 210.555 541.318 213.541 550.277L223.994 592.09C225.487 601.049 221.008 610.009 212.048 611.502L174.715 618.969C165.756 620.462 156.796 614.489 153.809 605.529L143.356 563.717C141.863 554.757 146.343 545.797 155.303 544.304L192.635 536.838Z"
            fill="#4EAF76" />
        <path
            d="M268.793 423.347C277.753 423.347 285.219 430.814 286.712 439.774V481.586C286.712 490.546 279.246 498.012 270.286 498.012H232.954C223.994 498.012 216.527 490.546 215.034 481.586V439.774C215.034 430.814 222.501 423.347 231.46 423.347H268.793Z"
            fill="#285725" />
        <path
            d="M344.952 211.299C353.911 215.779 356.898 226.232 352.418 233.699L312.099 312.843C307.619 321.803 298.66 323.296 289.7 318.817L256.847 299.404C249.381 294.924 246.394 282.977 249.381 275.511L286.713 200.846C291.193 191.886 301.646 188.9 309.113 193.38L344.952 211.299Z"
            fill="#467A41" />
        <path
            d="M501.747 20.1574C504.734 29.1172 500.254 38.0769 491.294 42.5568L482.335 45.5434C473.375 48.53 464.415 44.0501 459.935 35.0903L447.989 0.744493C445.002 -8.21528 449.482 -17.1751 458.442 -21.6549L467.402 -24.6415C476.361 -27.6281 485.321 -23.1482 489.801 -14.1885L501.747 20.1574Z"
            fill="#4BAF74" />
        <path
            d="M333.005 108.262C340.472 114.235 340.472 126.181 334.499 132.155L327.032 139.621C321.059 147.088 310.606 147.087 303.139 141.114L276.26 115.728C268.794 109.755 268.794 97.8087 274.767 91.8356L282.233 84.3691C288.206 76.9026 298.66 76.9026 306.126 82.8758L333.005 108.262Z"
            fill="#467A41" />
        <path
            d="M198.608 196.366C207.568 199.353 212.048 209.806 207.568 218.766L204.582 227.725C201.595 236.685 191.142 241.165 182.182 236.685L147.836 221.752C138.877 218.766 134.397 208.313 138.877 199.353L141.863 190.393C144.85 181.433 155.303 176.953 164.263 181.433L198.608 196.366Z"
            fill="#285725" />
        <path
            d="M464.415 808.618C470.388 801.151 468.895 790.698 461.428 784.725L427.082 759.339C419.616 753.366 409.163 754.859 403.19 762.325L380.79 793.685C374.817 801.151 376.31 811.604 383.777 817.577L418.123 842.963C425.589 848.937 436.042 847.443 442.015 839.977L464.415 808.618Z"
            fill="#4DAC8A" />
        <path
            d="M344.952 701.1C353.911 696.62 356.898 686.167 352.418 678.701L312.099 599.556C307.619 590.596 298.66 589.103 289.7 593.583L256.847 612.996C249.381 617.476 246.394 629.422 249.381 636.888L286.713 711.553C291.193 720.513 301.646 723.5 309.113 719.02L344.952 701.1Z"
            fill="#4CAB7F" />
        <path
            d="M491.294 901.202C494.281 892.242 489.801 883.282 480.841 878.802L471.882 875.816C462.922 872.829 453.962 877.309 449.482 886.269L436.043 922.108C433.056 931.068 437.536 940.028 446.496 944.507L455.455 947.494C464.415 950.481 473.375 946.001 477.855 937.041L491.294 901.202Z"
            fill="#52B2BB" />
        <path
            d="M333.005 805.631C340.472 799.658 340.472 787.711 334.499 781.738L327.032 774.272C321.059 766.805 310.606 766.805 303.139 772.779L276.26 798.165C268.794 804.138 268.794 816.084 274.767 822.057L282.233 829.524C288.206 836.99 298.66 836.99 306.126 831.017L333.005 805.631Z"
            fill="#63BFBB" />
        <path
            d="M198.608 717.526C207.568 714.54 212.048 704.087 207.568 695.127L204.582 686.167C201.595 677.208 191.142 672.728 182.182 677.208L147.836 692.141C138.877 695.127 134.397 705.58 138.877 714.54L141.863 723.5C144.85 730.966 155.303 735.446 164.263 730.966L198.608 717.526Z"
            fill="#4EAD8B" />
        <path
            d="M113.49 433.8C122.45 433.8 129.916 441.267 131.41 450.227V460.68C131.41 469.639 123.943 477.106 114.983 477.106H77.651C67.1979 477.106 59.7314 469.639 59.7314 460.68V450.227C59.7314 441.267 67.1979 433.8 76.1577 433.8H113.49Z"
            fill="#285725" />
        <path d="M551.026 253.112C551.026 253.112 637.638 209.806 722.755 245.645"
            stroke="url(#paint1_linear_733_12191)" stroke-width="4.8" stroke-miterlimit="10"
            stroke-linecap="round" />
    </g>
    <defs>
        <filter id="filter0_f_733_12191" x="-50" y="-663" width="2216" height="2216"
            filterUnits="userSpaceOnUse" color-interpolation-filters="sRGB">
            <feFlood flood-opacity="0" result="BackgroundImageFix" />
            <feBlend mode="normal" in="SourceGraphic" in2="BackgroundImageFix" result="shape" />
            <feGaussianBlur stdDeviation="25" result="effect1_foregroundBlur_733_12191" />
        </filter>
        <linearGradient id="paint0_linear_733_12191" x1="767.746" y1="792.14" x2="560.929"
            y2="934.243" gradientUnits="userSpaceOnUse">
            <stop stop-color="#608FCC" />
            <stop offset="0.5696" stop-color="#569FA8" />
            <stop offset="1" stop-color="#4DAC8A" />
        </linearGradient>
        <linearGradient id="paint1_linear_733_12191" x1="515.398" y1="241.649" x2="758.717"
            y2="241.649" gradientUnits="userSpaceOnUse">
            <stop stop-color="#58BDAE" />
            <stop offset="1" stop-color="#55B1BC" />
        </linearGradient>
    </defs>
</svg>